<svg width="171" height="102" viewBox="0 0 171 102" fill="none" xmlns="http://www.w3.org/2000/svg">
<path d="M1.49991 40.4814C2.8729 21.5298 18.0228 6.50614 36.9848 5.28518C52.7287 4.27144 71.6259 3.04459 87.9075 1.95922C102.152 1.00963 118.562 0.817562 133.142 0.929785C154.825 1.09667 171.247 20.0303 170.693 41.7067C170.635 43.949 170.589 46.2369 170.558 48.5566C170.488 53.7314 170.548 58.8093 170.686 63.6113C171.233 82.5679 159.099 99.6468 140.176 100.9C125.281 101.887 105.273 102.23 80.0846 100.596C63.2411 99.5033 49.4612 98.7096 38.3202 98.133C16.2489 96.9909 -1.20455 77.8114 0.392411 55.7683L1.49991 40.4814Z" fill="url(#paint0_radial_15_384)"/>
<defs>
<radialGradient id="paint0_radial_15_384" cx="0" cy="0" r="1" gradientUnits="userSpaceOnUse" gradientTransform="translate(85.1865 48.622) rotate(90) scale(47.7209 87.7524)">
<stop stop-color="#0017A0"/>
<stop offset="1" stop-color="#1079BC"/>
</radialGradient>
</defs>
</svg>
