<svg width="785" height="135" viewBox="0 0 785 135" fill="none" xmlns="http://www.w3.org/2000/svg">
<path d="M75.9102 75.4572C75.8435 76.1239 75.8102 76.6906 75.8102 77.1572C75.8102 77.6239 75.7768 78.1572 75.7102 78.7572C76.7768 78.9572 77.7435 79.0572 78.6102 79.0572C80.0768 79.0572 81.5102 79.0572 82.9102 79.0572C84.3768 78.9906 85.8435 79.0239 87.3102 79.1572C90.3102 79.2239 91.8435 80.7239 91.9102 83.6572C91.9768 85.7239 91.9768 87.7572 91.9102 89.7572C91.8435 91.6906 91.7435 93.6572 91.6102 95.6572C91.5435 96.7239 91.2102 97.4906 90.6102 97.9572C90.0102 98.3572 89.1102 98.6239 87.9102 98.7572C86.7102 98.8239 85.5102 98.8572 84.3102 98.8572C83.1102 98.8572 81.9435 98.8906 80.8102 98.9572C79.8768 99.0239 78.9102 99.0906 77.9102 99.1572C76.9768 99.2239 76.0102 99.3239 75.0102 99.4572V103.557C75.3435 103.557 75.6435 103.591 75.9102 103.657C76.2435 103.724 76.5768 103.724 76.9102 103.657C79.7102 103.391 82.4435 103.124 85.1102 102.857C87.8435 102.591 90.6102 102.291 93.4102 101.957C94.9435 101.824 96.4102 101.691 97.8102 101.557C99.2102 101.357 100.643 101.191 102.11 101.057C103.577 100.991 104.843 101.291 105.91 101.957C106.977 102.557 107.477 103.891 107.41 105.957C107.277 108.957 107.21 111.957 107.21 114.957C107.277 117.957 107.277 120.991 107.21 124.057C107.21 125.124 107.043 125.824 106.71 126.157C106.377 126.557 105.743 126.857 104.81 127.057C104.477 127.124 104.11 127.157 103.71 127.157C103.377 127.157 103.01 127.157 102.61 127.157C95.9435 127.091 89.3435 127.024 82.8102 126.957C76.3435 126.957 69.8102 126.924 63.2102 126.857C62.2768 126.857 61.3435 126.891 60.4102 126.957C59.4768 127.024 58.5435 127.091 57.6102 127.157C55.6102 127.291 54.1768 126.957 53.3102 126.157C52.5102 125.424 52.1768 124.024 52.3102 121.957C52.3768 117.291 52.5768 112.557 52.9102 107.757C53.4435 100.491 53.9435 93.2572 54.4102 86.0572C54.9435 78.8572 55.4768 71.6239 56.0102 64.3572C56.1435 63.2239 56.2435 62.0572 56.3102 60.8572C56.4435 59.6572 56.5768 58.4572 56.7102 57.2572C56.9102 55.8572 57.2102 54.8906 57.6102 54.3572C58.0768 53.8239 59.0102 53.4906 60.4102 53.3572C63.8102 52.9572 67.1102 52.5572 70.3102 52.1572C73.5768 51.6906 76.9102 51.3906 80.3102 51.2572C83.7768 51.0572 87.2435 50.9906 90.7102 51.0572C94.2435 51.1239 97.7768 51.1572 101.31 51.1572C103.043 51.2239 104.143 51.5239 104.61 52.0572C105.143 52.5906 105.41 53.7906 105.41 55.6572C105.543 61.0572 105.543 66.5239 105.41 72.0572C105.41 73.5906 105.21 74.5572 104.81 74.9572C104.41 75.3572 103.477 75.5906 102.01 75.6572C99.4768 75.6572 96.9102 75.6572 94.3102 75.6572C91.7102 75.5906 89.1435 75.5239 86.6102 75.4572H75.9102ZM132.464 87.2572C130.797 84.4572 129.131 81.7572 127.464 79.1572C125.864 76.5572 124.264 73.9572 122.664 71.3572C121.797 69.8239 120.964 68.3239 120.164 66.8572C119.364 65.3239 118.597 63.7906 117.864 62.2572C117.197 60.9239 116.997 59.9572 117.264 59.3572C117.531 58.6906 118.331 58.0572 119.664 57.4572C122.397 56.1906 125.064 54.9572 127.664 53.7572C130.331 52.4906 133.031 51.2239 135.764 49.9572C136.764 49.4906 137.831 49.0572 138.964 48.6572C140.497 48.1239 141.664 48.0906 142.464 48.5572C143.331 48.9572 144.031 49.8572 144.564 51.2572C145.297 53.3239 146.031 55.3906 146.764 57.4572C147.497 59.5239 148.231 61.5906 148.964 63.6572C149.097 64.0572 149.264 64.4906 149.464 64.9572C149.664 65.4239 149.897 65.9572 150.164 66.5572C150.431 66.1572 150.664 65.8239 150.864 65.5572C151.064 65.2906 151.231 64.9906 151.364 64.6572C152.764 62.1906 154.131 59.7572 155.464 57.3572C156.864 54.8906 158.264 52.4572 159.664 50.0572C160.597 48.5239 161.464 47.6572 162.264 47.4572C163.064 47.1906 164.264 47.4906 165.864 48.3572C168.797 49.8906 171.664 51.4572 174.464 53.0572C177.331 54.5906 180.197 56.1572 183.064 57.7572C184.131 58.3572 184.697 58.9906 184.764 59.6572C184.831 60.2572 184.464 61.0239 183.664 61.9572C181.331 64.6239 178.997 67.2572 176.664 69.8572C174.331 72.3906 172.031 74.9906 169.764 77.6572C168.297 79.3906 166.897 81.1906 165.564 83.0572C164.231 84.8572 162.831 86.7239 161.364 88.6572C162.031 89.3906 162.631 90.0572 163.164 90.6572C163.764 91.2572 164.331 91.8572 164.864 92.4572C167.664 95.5239 170.631 98.3572 173.764 100.957C176.897 103.557 180.131 106.091 183.464 108.557C185.931 110.357 185.931 112.124 183.464 113.857C180.464 116.057 177.464 118.257 174.464 120.457C171.464 122.591 168.464 124.724 165.464 126.857C163.864 127.991 162.597 128.457 161.664 128.257C160.731 128.124 159.697 127.191 158.564 125.457C157.031 122.991 155.531 120.524 154.064 118.057C152.664 115.524 151.231 112.991 149.764 110.457C149.431 109.791 149.064 109.124 148.664 108.457C148.331 107.791 147.964 107.057 147.564 106.257C147.297 106.657 147.064 106.991 146.864 107.257C146.731 107.524 146.597 107.824 146.464 108.157C145.664 110.757 144.864 113.357 144.064 115.957C143.264 118.491 142.497 121.057 141.764 123.657C141.297 125.391 140.664 126.457 139.864 126.857C139.131 127.257 137.997 127.024 136.464 126.157C133.931 124.824 131.397 123.491 128.864 122.157C126.331 120.824 123.831 119.457 121.364 118.057C119.631 117.057 118.564 116.057 118.164 115.057C117.831 114.057 118.131 112.691 119.064 110.957C120.997 107.357 122.964 103.824 124.964 100.357C126.964 96.8239 128.931 93.2906 130.864 89.7572C131.131 89.3572 131.364 88.9572 131.564 88.5572C131.831 88.1572 132.131 87.7239 132.464 87.2572ZM226.809 105.357C226.942 107.491 227.075 109.591 227.209 111.657C227.342 113.724 227.475 115.824 227.609 117.957C227.675 118.491 227.709 118.991 227.709 119.457C227.709 119.857 227.709 120.324 227.709 120.857C227.575 122.324 227.209 123.391 226.609 124.057C226.009 124.724 224.975 125.124 223.509 125.257C222.509 125.391 221.509 125.491 220.509 125.557C219.509 125.624 218.475 125.691 217.409 125.757C215.209 125.891 213.042 126.024 210.909 126.157C208.775 126.291 206.609 126.391 204.409 126.457C202.875 126.524 201.842 126.324 201.309 125.857C200.775 125.391 200.375 124.357 200.109 122.757C199.775 120.424 199.442 118.057 199.109 115.657C198.842 113.257 198.609 110.824 198.409 108.357C196.942 91.4239 196.909 74.3239 198.309 57.0572C198.375 55.8572 198.475 54.8906 198.609 54.1572C198.809 53.4239 199.109 52.8239 199.509 52.3572C199.909 51.8906 200.475 51.5239 201.209 51.2572C201.942 50.9906 202.942 50.7239 204.209 50.4572C208.009 49.7239 211.775 49.0572 215.509 48.4572C219.309 47.7906 223.142 47.5906 227.009 47.8572C230.009 48.0572 232.875 48.4906 235.609 49.1572C238.409 49.8239 241.175 50.7572 243.909 51.9572C247.509 53.5572 250.275 55.7572 252.209 58.5572C254.142 61.3572 255.442 64.6906 256.109 68.5572C256.642 71.4906 256.742 74.2239 256.409 76.7572C256.075 79.2906 255.375 81.7239 254.309 84.0572C253.309 86.3239 251.975 88.4906 250.309 90.5572C248.709 92.5572 246.875 94.4572 244.809 96.2572C242.475 98.3239 239.942 100.091 237.209 101.557C234.542 102.957 231.642 103.991 228.509 104.657C228.242 104.724 227.975 104.824 227.709 104.957C227.442 105.091 227.142 105.224 226.809 105.357ZM223.209 68.6572C223.342 71.3239 223.442 73.8906 223.509 76.3572C223.575 78.8239 223.675 81.2906 223.809 83.7572C224.742 83.6239 225.675 83.3239 226.609 82.8572C227.609 82.3239 228.509 81.7572 229.309 81.1572C230.109 80.4906 230.809 79.7572 231.409 78.9572C232.009 78.1572 232.409 77.3906 232.609 76.6572C233.075 74.8572 232.909 73.2906 232.109 71.9572C231.375 70.6239 230.109 69.7239 228.309 69.2572C227.575 69.1239 226.775 69.0239 225.909 68.9572C225.109 68.8906 224.209 68.7906 223.209 68.6572ZM294.222 99.1572C295.489 99.0239 296.655 98.9239 297.722 98.8572C298.855 98.7239 299.989 98.5906 301.122 98.4572C303.255 98.2572 305.355 98.0572 307.422 97.8572C309.555 97.6572 311.655 97.3572 313.722 96.9572C315.189 96.6239 316.355 96.7572 317.222 97.3572C318.155 97.9572 318.655 99.1906 318.722 101.057C318.855 103.991 318.922 106.891 318.922 109.757C318.989 112.624 319.055 115.524 319.122 118.457C319.122 119.191 319.089 119.724 319.022 120.057C318.822 120.991 318.522 121.657 318.122 122.057C317.789 122.391 317.155 122.624 316.222 122.757C315.489 122.824 314.789 122.857 314.122 122.857C313.522 122.857 312.855 122.891 312.122 122.957C307.855 123.024 303.589 123.091 299.322 123.157C295.122 123.157 290.855 123.224 286.522 123.357C284.655 123.424 282.789 123.524 280.922 123.657C279.122 123.791 277.255 123.924 275.322 124.057C274.855 124.124 274.389 124.157 273.922 124.157C273.522 124.157 273.055 124.157 272.522 124.157C271.189 124.091 270.222 123.791 269.622 123.257C269.089 122.657 268.755 121.657 268.622 120.257C268.489 117.857 268.355 115.457 268.222 113.057C268.155 110.591 268.122 108.124 268.122 105.657C268.055 96.9906 268.022 88.4239 268.022 79.9572C268.089 71.4239 268.122 62.8239 268.122 54.1572C268.122 52.6239 268.289 51.6239 268.622 51.1572C269.022 50.6239 269.989 50.2572 271.522 50.0572C274.789 49.5906 278.022 49.1572 281.222 48.7572C284.489 48.3572 287.755 47.9572 291.022 47.5572C291.489 47.4906 291.922 47.4906 292.322 47.5572C292.789 47.5572 293.255 47.5906 293.722 47.6572C295.455 47.9906 296.422 48.9572 296.622 50.5572C296.689 51.4239 296.722 52.2906 296.722 53.1572C296.789 54.0239 296.789 54.9239 296.722 55.8572C296.389 60.4572 296.022 65.0572 295.622 69.6572C295.289 74.2572 294.955 78.8572 294.622 83.4572C294.489 85.9906 294.389 88.5572 294.322 91.1572C294.322 93.6906 294.289 96.3572 294.222 99.1572ZM352.844 75.4572C352.777 76.1239 352.744 76.6906 352.744 77.1572C352.744 77.6239 352.71 78.1572 352.644 78.7572C353.71 78.9572 354.677 79.0572 355.544 79.0572C357.01 79.0572 358.444 79.0572 359.844 79.0572C361.31 78.9906 362.777 79.0239 364.244 79.1572C367.244 79.2239 368.777 80.7239 368.844 83.6572C368.91 85.7239 368.91 87.7572 368.844 89.7572C368.777 91.6906 368.677 93.6572 368.544 95.6572C368.477 96.7239 368.144 97.4906 367.544 97.9572C366.944 98.3572 366.044 98.6239 364.844 98.7572C363.644 98.8239 362.444 98.8572 361.244 98.8572C360.044 98.8572 358.877 98.8906 357.744 98.9572C356.81 99.0239 355.844 99.0906 354.844 99.1572C353.91 99.2239 352.944 99.3239 351.944 99.4572V103.557C352.277 103.557 352.577 103.591 352.844 103.657C353.177 103.724 353.51 103.724 353.844 103.657C356.644 103.391 359.377 103.124 362.044 102.857C364.777 102.591 367.544 102.291 370.344 101.957C371.877 101.824 373.344 101.691 374.744 101.557C376.144 101.357 377.577 101.191 379.044 101.057C380.51 100.991 381.777 101.291 382.844 101.957C383.91 102.557 384.41 103.891 384.344 105.957C384.21 108.957 384.144 111.957 384.144 114.957C384.21 117.957 384.21 120.991 384.144 124.057C384.144 125.124 383.977 125.824 383.644 126.157C383.31 126.557 382.677 126.857 381.744 127.057C381.41 127.124 381.044 127.157 380.644 127.157C380.31 127.157 379.944 127.157 379.544 127.157C372.877 127.091 366.277 127.024 359.744 126.957C353.277 126.957 346.744 126.924 340.144 126.857C339.21 126.857 338.277 126.891 337.344 126.957C336.41 127.024 335.477 127.091 334.544 127.157C332.544 127.291 331.11 126.957 330.244 126.157C329.444 125.424 329.11 124.024 329.244 121.957C329.31 117.291 329.51 112.557 329.844 107.757C330.377 100.491 330.877 93.2572 331.344 86.0572C331.877 78.8572 332.41 71.6239 332.944 64.3572C333.077 63.2239 333.177 62.0572 333.244 60.8572C333.377 59.6572 333.51 58.4572 333.644 57.2572C333.844 55.8572 334.144 54.8906 334.544 54.3572C335.01 53.8239 335.944 53.4906 337.344 53.3572C340.744 52.9572 344.044 52.5572 347.244 52.1572C350.51 51.6906 353.844 51.3906 357.244 51.2572C360.71 51.0572 364.177 50.9906 367.644 51.0572C371.177 51.1239 374.71 51.1572 378.244 51.1572C379.977 51.2239 381.077 51.5239 381.544 52.0572C382.077 52.5906 382.344 53.7906 382.344 55.6572C382.477 61.0572 382.477 66.5239 382.344 72.0572C382.344 73.5906 382.144 74.5572 381.744 74.9572C381.344 75.3572 380.41 75.5906 378.944 75.6572C376.41 75.6572 373.844 75.6572 371.244 75.6572C368.644 75.5906 366.077 75.5239 363.544 75.4572H352.844ZM421.798 101.657V104.757C421.864 106.891 421.931 108.991 421.998 111.057C422.131 113.057 422.198 115.124 422.198 117.257C422.198 119.524 421.831 121.057 421.098 121.857C420.364 122.657 418.864 123.157 416.598 123.357C414.464 123.624 412.331 123.857 410.198 124.057C408.131 124.257 406.031 124.457 403.898 124.657C403.364 124.657 402.831 124.657 402.298 124.657C401.831 124.724 401.331 124.724 400.798 124.657C398.264 124.324 396.798 122.991 396.398 120.657C396.198 119.724 396.064 118.824 395.998 117.957C395.931 117.091 395.864 116.224 395.798 115.357C395.464 105.491 395.431 95.7239 395.698 86.0572C395.964 76.3239 396.431 66.5572 397.098 56.7572C397.231 54.6239 397.731 53.0906 398.598 52.1572C399.464 51.2239 400.898 50.6572 402.898 50.4572C405.231 50.2572 407.564 50.0906 409.898 49.9572C412.231 49.7572 414.564 49.5906 416.898 49.4572C419.098 49.2572 420.364 50.2906 420.698 52.5572C420.764 53.2906 420.764 54.0239 420.698 54.7572C420.698 55.4906 420.698 56.2239 420.698 56.9572C420.698 60.9572 420.664 64.9239 420.598 68.8572C420.598 72.7239 420.598 76.6572 420.598 80.6572C420.598 81.3906 420.698 82.2906 420.898 83.3572C423.031 83.2239 425.164 83.0572 427.298 82.8572C429.431 82.6572 431.598 82.4572 433.798 82.2572C433.798 81.0572 433.831 79.8906 433.898 78.7572C433.964 77.6239 433.931 76.4906 433.798 75.3572C433.398 71.7572 432.998 68.2239 432.598 64.7572C432.198 61.2239 431.731 57.6572 431.198 54.0572C431.064 52.5906 431.164 51.5572 431.498 50.9572C431.831 50.2906 432.731 49.8906 434.198 49.7572C436.998 49.4239 439.731 49.1906 442.398 49.0572C445.131 48.9239 447.898 48.8239 450.698 48.7572C451.964 48.6906 452.964 49.0572 453.698 49.8572C454.431 50.6572 454.931 51.6239 455.198 52.7572C455.664 54.8906 456.098 57.0239 456.498 59.1572C456.964 61.2906 457.298 63.4239 457.498 65.5572C458.364 74.6906 458.698 83.7239 458.498 92.6572C458.364 101.591 458.031 110.624 457.498 119.757V120.057C457.298 122.591 456.698 124.424 455.698 125.557C454.698 126.691 452.931 127.391 450.398 127.657C448.264 127.857 446.131 127.924 443.998 127.857C441.864 127.857 439.731 127.824 437.598 127.757C436.264 127.624 435.298 127.224 434.698 126.557C434.164 125.891 433.898 124.824 433.898 123.357C433.898 120.357 433.931 117.357 433.998 114.357C434.064 111.291 434.098 108.257 434.098 105.257V101.657H421.798ZM492.238 75.4572C492.172 76.1239 492.138 76.6906 492.138 77.1572C492.138 77.6239 492.105 78.1572 492.038 78.7572C493.105 78.9572 494.072 79.0572 494.938 79.0572C496.405 79.0572 497.838 79.0572 499.238 79.0572C500.705 78.9906 502.172 79.0239 503.638 79.1572C506.638 79.2239 508.172 80.7239 508.238 83.6572C508.305 85.7239 508.305 87.7572 508.238 89.7572C508.172 91.6906 508.072 93.6572 507.938 95.6572C507.872 96.7239 507.538 97.4906 506.938 97.9572C506.338 98.3572 505.438 98.6239 504.238 98.7572C503.038 98.8239 501.838 98.8572 500.638 98.8572C499.438 98.8572 498.272 98.8906 497.138 98.9572C496.205 99.0239 495.238 99.0906 494.238 99.1572C493.305 99.2239 492.338 99.3239 491.338 99.4572V103.557C491.672 103.557 491.972 103.591 492.238 103.657C492.572 103.724 492.905 103.724 493.238 103.657C496.038 103.391 498.772 103.124 501.438 102.857C504.172 102.591 506.938 102.291 509.738 101.957C511.272 101.824 512.738 101.691 514.138 101.557C515.538 101.357 516.972 101.191 518.438 101.057C519.905 100.991 521.172 101.291 522.238 101.957C523.305 102.557 523.805 103.891 523.738 105.957C523.605 108.957 523.538 111.957 523.538 114.957C523.605 117.957 523.605 120.991 523.538 124.057C523.538 125.124 523.372 125.824 523.038 126.157C522.705 126.557 522.072 126.857 521.138 127.057C520.805 127.124 520.438 127.157 520.038 127.157C519.705 127.157 519.338 127.157 518.938 127.157C512.272 127.091 505.672 127.024 499.138 126.957C492.672 126.957 486.138 126.924 479.538 126.857C478.605 126.857 477.672 126.891 476.738 126.957C475.805 127.024 474.872 127.091 473.938 127.157C471.938 127.291 470.505 126.957 469.638 126.157C468.838 125.424 468.505 124.024 468.638 121.957C468.705 117.291 468.905 112.557 469.238 107.757C469.772 100.491 470.272 93.2572 470.738 86.0572C471.272 78.8572 471.805 71.6239 472.338 64.3572C472.472 63.2239 472.572 62.0572 472.638 60.8572C472.772 59.6572 472.905 58.4572 473.038 57.2572C473.238 55.8572 473.538 54.8906 473.938 54.3572C474.405 53.8239 475.338 53.4906 476.738 53.3572C480.138 52.9572 483.438 52.5572 486.638 52.1572C489.905 51.6906 493.238 51.3906 496.638 51.2572C500.105 51.0572 503.572 50.9906 507.038 51.0572C510.572 51.1239 514.105 51.1572 517.638 51.1572C519.372 51.2239 520.472 51.5239 520.938 52.0572C521.472 52.5906 521.738 53.7906 521.738 55.6572C521.872 61.0572 521.872 66.5239 521.738 72.0572C521.738 73.5906 521.538 74.5572 521.138 74.9572C520.738 75.3572 519.805 75.5906 518.338 75.6572C515.805 75.6572 513.238 75.6572 510.638 75.6572C508.038 75.5906 505.472 75.5239 502.938 75.4572H492.238ZM557.292 97.0572C557.426 98.9239 557.559 100.791 557.692 102.657C557.826 104.457 557.959 106.291 558.092 108.157C558.226 110.024 558.326 111.891 558.392 113.757C558.459 115.624 558.459 117.491 558.392 119.357C558.392 121.024 558.126 122.191 557.592 122.857C557.059 123.457 555.959 123.891 554.292 124.157C551.959 124.491 549.592 124.791 547.192 125.057C544.792 125.391 542.426 125.624 540.092 125.757C538.492 125.891 537.359 125.624 536.692 124.957C536.092 124.357 535.726 123.224 535.592 121.557C535.459 118.557 535.359 115.624 535.292 112.757C535.292 109.824 535.226 106.857 535.092 103.857C534.959 95.9906 534.792 88.1572 534.592 80.3572C534.392 72.4906 534.226 64.6239 534.092 56.7572C534.092 55.8906 534.126 55.1906 534.192 54.6572C534.259 54.1239 534.392 53.7239 534.592 53.4572C534.859 53.1239 535.226 52.8906 535.692 52.7572C536.226 52.6239 536.926 52.5239 537.792 52.4572C540.259 52.2572 542.692 52.0906 545.092 51.9572C547.492 51.7572 549.926 51.4906 552.392 51.1572C554.392 50.8906 556.092 51.1239 557.492 51.8572C558.892 52.5239 560.059 53.7572 560.992 55.5572C562.992 59.3572 565.026 63.1239 567.092 66.8572C569.159 70.5239 571.226 74.2239 573.292 77.9572C573.559 78.3572 573.792 78.7906 573.992 79.2572C574.259 79.6572 574.592 80.2239 574.992 80.9572V77.9572C574.859 73.6906 574.726 69.4239 574.592 65.1572C574.459 60.8906 574.326 56.6239 574.192 52.3572C574.126 50.8906 574.326 49.8906 574.792 49.3572C575.326 48.8239 576.259 48.4572 577.592 48.2572C578.392 48.0572 579.226 48.0239 580.092 48.1572C582.359 48.4906 584.592 48.5572 586.792 48.3572C588.992 48.1572 591.226 47.8906 593.492 47.5572C596.292 47.2239 597.659 48.4239 597.592 51.1572C597.592 53.0239 597.492 54.8906 597.292 56.7572C597.159 58.5572 597.092 60.4239 597.092 62.3572C596.959 77.1572 596.959 92.0239 597.092 106.957C597.092 108.691 597.126 110.391 597.192 112.057C597.259 113.724 597.326 115.424 597.392 117.157C597.392 118.424 597.292 119.691 597.092 120.957C596.892 122.091 596.492 122.991 595.892 123.657C595.292 124.257 594.392 124.557 593.192 124.557C590.659 124.557 588.092 124.524 585.492 124.457C582.959 124.391 580.426 124.324 577.892 124.257C576.892 124.257 575.892 124.224 574.892 124.157C573.959 124.091 572.992 124.024 571.992 123.957C571.059 123.891 570.292 123.791 569.692 123.657C569.092 123.457 568.592 123.191 568.192 122.857C567.792 122.524 567.426 122.091 567.092 121.557C566.826 120.957 566.559 120.224 566.292 119.357C565.159 115.891 563.959 112.457 562.692 109.057C561.426 105.657 560.159 102.257 558.892 98.8572C558.759 98.5239 558.592 98.2239 558.392 97.9572C558.259 97.6239 558.126 97.2906 557.992 96.9572C557.659 96.9572 557.426 96.9906 557.292 97.0572ZM642.728 72.9572C644.395 73.7572 646.028 74.5572 647.628 75.3572C649.295 76.0906 650.961 76.8572 652.628 77.6572C656.228 79.4572 659.095 81.8906 661.228 84.9572C663.428 87.9572 664.928 91.2572 665.728 94.8572C666.528 98.3906 666.661 101.991 666.128 105.657C665.595 109.324 664.461 112.724 662.728 115.857C660.995 118.924 658.695 121.524 655.828 123.657C653.028 125.791 649.695 127.057 645.828 127.457C642.695 127.857 639.461 127.791 636.128 127.257C632.795 126.791 629.528 125.924 626.328 124.657C623.128 123.391 620.095 121.791 617.228 119.857C614.361 117.924 611.895 115.724 609.828 113.257C608.695 111.991 608.195 110.991 608.328 110.257C608.461 109.457 609.128 108.491 610.328 107.357C611.661 106.157 612.895 104.891 614.028 103.557C615.228 102.224 616.428 100.891 617.628 99.5572C617.961 99.1572 618.295 98.7572 618.628 98.3572C619.028 97.8906 619.395 97.4239 619.728 96.9572C620.661 96.0239 621.428 95.4906 622.028 95.3572C622.628 95.1572 623.495 95.3906 624.628 96.0572C625.761 96.7239 626.828 97.3906 627.828 98.0572C628.828 98.7239 629.861 99.4239 630.928 100.157C633.595 101.891 636.428 102.857 639.428 103.057C639.961 103.124 640.495 103.124 641.028 103.057C641.628 102.991 642.195 102.891 642.728 102.757C643.328 102.624 643.895 102.291 644.428 101.757C644.961 101.224 645.328 100.657 645.528 100.057C645.795 99.3906 645.828 98.6906 645.628 97.9572C645.495 97.2239 645.061 96.5906 644.328 96.0572C642.128 94.3906 639.795 93.1239 637.328 92.2572C634.861 91.3239 632.428 90.4572 630.028 89.6572C627.628 88.8572 625.328 87.9572 623.128 86.9572C620.928 85.9572 618.995 84.5239 617.328 82.6572C614.461 79.5906 612.695 76.2572 612.028 72.6572C611.361 68.9906 611.595 65.4906 612.728 62.1572C613.861 58.8239 615.795 55.8906 618.528 53.3572C621.261 50.7572 624.628 48.9572 628.628 47.9572C631.628 47.2239 634.495 46.8572 637.228 46.8572C640.028 46.8572 642.728 47.1572 645.328 47.7572C647.928 48.2906 650.495 49.0572 653.028 50.0572C655.561 51.0572 658.061 52.1906 660.528 53.4572C661.728 54.0572 662.461 54.6906 662.728 55.3572C663.061 55.9572 662.995 56.8906 662.528 58.1572C661.661 60.4906 660.828 62.8239 660.028 65.1572C659.228 67.4239 658.428 69.7239 657.628 72.0572C657.495 72.3239 657.395 72.5572 657.328 72.7572C657.328 72.9572 657.261 73.1906 657.128 73.4572C656.728 74.3239 656.361 74.9906 656.028 75.4572C655.761 75.8572 655.428 76.0906 655.028 76.1572C654.695 76.2239 654.261 76.1572 653.728 75.9572C653.261 75.6906 652.628 75.3239 651.828 74.8572C650.428 73.9906 648.961 73.2239 647.428 72.5572C645.961 71.8906 644.461 71.2239 642.928 70.5572C641.661 70.0239 640.795 69.7906 640.328 69.8572C639.861 69.8572 639.661 70.0239 639.728 70.3572C639.861 70.6906 640.195 71.1239 640.728 71.6572C641.261 72.1239 641.928 72.5572 642.728 72.9572ZM676.902 56.8572C676.836 55.7239 676.969 54.8572 677.302 54.2572C677.702 53.5906 678.469 53.1906 679.602 53.0572C683.602 52.5239 687.569 52.0572 691.502 51.6572C695.436 51.1906 699.402 50.7906 703.402 50.4572C704.869 50.3239 705.802 50.4906 706.202 50.9572C706.602 51.4239 706.769 52.4239 706.702 53.9572C706.569 57.7572 706.402 61.5239 706.202 65.2572C706.002 68.9239 705.802 72.6239 705.602 76.3572C705.469 78.5572 705.336 80.9906 705.202 83.6572C705.069 86.3239 704.936 89.0239 704.802 91.7572C704.669 94.4906 704.502 97.2239 704.302 99.9572C704.169 102.624 704.036 105.057 703.902 107.257C703.769 109.524 703.636 111.791 703.502 114.057C703.436 116.324 703.336 118.624 703.202 120.957C703.202 121.357 703.169 121.757 703.102 122.157C703.036 122.557 702.936 122.957 702.802 123.357C702.536 124.957 701.536 125.824 699.802 125.957C696.802 126.091 693.836 126.191 690.902 126.257C688.036 126.391 685.102 126.524 682.102 126.657C680.836 126.657 679.969 126.424 679.502 125.957C679.036 125.491 678.736 124.591 678.602 123.257C678.536 122.524 678.502 121.824 678.502 121.157C678.569 120.424 678.602 119.691 678.602 118.957C678.602 114.157 678.569 109.124 678.502 103.857C678.502 98.5906 678.436 93.2906 678.302 87.9572C678.169 82.5572 677.969 77.2239 677.702 71.9572C677.502 66.6906 677.236 61.6572 676.902 56.8572ZM725.587 56.0572C728.12 53.0572 731.087 50.7239 734.487 49.0572C737.953 47.3239 741.553 46.2906 745.287 45.9572C748.02 45.7572 750.82 45.8572 753.687 46.2572C756.62 46.6572 759.42 47.3906 762.087 48.4572C764.753 49.5239 767.187 50.9239 769.387 52.6572C771.653 54.3906 773.52 56.4239 774.987 58.7572C776.92 61.8906 778.353 65.5239 779.287 69.6572C780.287 73.7906 780.787 78.1239 780.787 82.6572C780.787 87.1239 780.32 91.6239 779.387 96.1572C778.52 100.624 777.253 104.757 775.587 108.557C773.92 112.357 771.853 115.657 769.387 118.457C766.987 121.191 764.253 123.057 761.187 124.057C757.187 125.257 753.187 125.991 749.187 126.257C745.187 126.591 741.12 126.291 736.987 125.357C733.587 124.691 730.62 123.424 728.087 121.557C725.62 119.624 723.487 117.124 721.687 114.057C719.553 110.324 718.087 105.791 717.287 100.457C716.487 95.1239 716.253 89.6906 716.587 84.1572C716.987 78.6239 717.92 73.3572 719.387 68.3572C720.92 63.2906 722.987 59.1906 725.587 56.0572ZM753.987 70.7572C753.52 69.1572 752.753 68.0239 751.687 67.3572C750.687 66.6906 749.587 66.4239 748.387 66.5572C747.253 66.6239 746.153 67.0239 745.087 67.7572C744.02 68.4906 743.22 69.4572 742.687 70.6572C742.42 71.1906 742.187 71.7572 741.987 72.3572C741.187 75.3572 740.62 78.3572 740.287 81.3572C740.02 84.3572 740.12 87.4572 740.587 90.6572C740.72 91.3906 740.853 92.1572 740.987 92.9572C741.187 93.7572 741.453 94.5239 741.787 95.2572C742.387 97.0572 743.52 98.2239 745.187 98.7572C746.853 99.2906 748.387 98.9239 749.787 97.6572C750.387 97.1239 750.887 96.5239 751.287 95.8572C751.753 95.1906 752.153 94.5239 752.487 93.8572C753.353 91.9906 753.987 90.0572 754.387 88.0572C754.787 86.0572 754.987 84.0906 754.987 82.1572C755.053 80.2239 754.987 78.2906 754.787 76.3572C754.587 74.4239 754.32 72.5572 753.987 70.7572Z" fill="white"/>
<path d="M21.9973 0.680176L27.5677 11.7228C28.519 13.6087 30.043 15.1448 31.9212 16.1111L42.9192 21.7693L31.8765 27.3398C29.9907 28.2911 28.4545 29.8151 27.4882 31.6933L21.83 42.6912L16.2596 31.6485C15.3083 29.7627 13.7843 28.2265 11.9061 27.2602L0.908145 21.602L11.9508 16.0316C13.8366 15.0803 15.3728 13.5563 16.3391 11.6781L21.9973 0.680176Z" fill="white"/>
<path d="M29.0344 53.1006L32.9381 60.8391C33.8894 62.725 35.4134 64.2612 37.2916 65.2275L44.9988 69.1927L37.2603 73.0963C35.3744 74.0476 33.8382 75.5716 32.8719 77.4498L28.9067 85.157L25.0031 77.4185C24.0518 75.5327 22.5278 73.9965 20.6496 73.0302L12.9424 69.065L20.6809 65.1613C22.5667 64.21 24.1029 62.686 25.0692 60.8078L29.0344 53.1006Z" fill="white"/>
<path d="M66.1086 18.4409L67.3877 20.9765C68.339 22.8624 69.863 24.3985 71.7412 25.3648L74.2666 26.6641L71.7309 27.9432C69.8451 28.8945 68.3089 30.4185 67.3426 32.2966L66.0434 34.822L64.7643 32.2864C63.813 30.4005 62.289 28.8644 60.4108 27.8981L57.8855 26.5988L60.4211 25.3198C62.3069 24.3685 63.8431 22.8445 64.8094 20.9663L66.1086 18.4409Z" fill="white"/>
</svg>
