<svg width="1030" height="849" viewBox="0 0 1030 849" fill="none" xmlns="http://www.w3.org/2000/svg">
<path d="M3.02154 62.6938C3.20657 55.8438 7.74205 49.9735 14.3983 48.3452C53.9168 38.6781 202.201 8.38651 503.062 10.1041C860.741 12.1461 947.383 -11.2995 1002.77 8.06213C1058.16 27.4238 1006.72 338.845 1019.63 421.201C1031 493.686 1000.07 758.618 992.495 821.081C991.558 828.807 985.232 834.598 977.457 834.943C917.984 837.581 673.919 847.961 514.537 848.029C353.984 848.097 107.498 837.461 50.3352 834.892C43.1254 834.568 37.153 829.504 35.7655 822.422C27.7946 781.736 2.94248 639.849 0.820052 442.8C-1.31088 244.962 1.94016 102.728 3.02154 62.6938Z" fill="white"/>
</svg>
