<svg width="3698" height="2356" viewBox="0 0 3698 2356" fill="none" xmlns="http://www.w3.org/2000/svg">
<path d="M3.85548 131.609C3.98293 123.258 10.0632 116.604 18.4018 116.129C123.678 110.134 803.218 73.8871 1842.16 73.8874C2974.75 73.8877 3445.35 -48.784 3612.52 23.5668C3779.68 95.9176 3649.38 933.412 3649.38 1213.88C3649.38 1494.34 3597.92 2301.56 3568.74 2333.39C3539.57 2365.21 2495.47 2352.56 1842.16 2352.77C1228.59 2352.96 264.253 2320.57 149.207 2316.63C142.344 2316.4 136.565 2311.83 134.726 2305.22C115.319 2235.39 12.2888 1839.26 4.08857 1271.51C-4.08494 705.611 2.49483 220.767 3.85548 131.609Z" fill="white"/>
</svg>
